<svg display="none" xmlns="http://www.w3.org/2000/svg">
    <symbol id="icon-search" viewBox="0 0 20 20">
        <g clip-path="url(#clip0_151_3302)">
        <path d="M8.80758 0C3.95121 0 0 3.95121 0 8.80758C0 13.6642 3.95121 17.6152 8.80758 17.6152C13.6642 17.6152 17.6152 13.6642 17.6152 8.80758C17.6152 3.95121 13.6642 0 8.80758 0ZM8.80758 15.9892C4.8477 15.9892 1.62602 12.7675 1.62602 8.80762C1.62602 4.84773 4.8477 1.62602 8.80758 1.62602C12.7675 1.62602 15.9891 4.8477 15.9891 8.80758C15.9891 12.7675 12.7675 15.9892 8.80758 15.9892Z" fill="#BB9B75"/>
        <path d="M19.762 18.6124L15.1007 13.9511C14.7831 13.6335 14.2687 13.6335 13.9511 13.9511C13.6335 14.2684 13.6335 14.7834 13.9511 15.1007L18.6124 19.762C18.7711 19.9208 18.979 20.0002 19.1872 20.0002C19.395 20.0002 19.6031 19.9208 19.762 19.762C20.0796 19.4446 20.0796 18.9297 19.762 18.6124Z" fill="#BB9B75"/>
        </g>
        <defs>
            <clipPath id="clip0_151_3302">
                <rect width="20" height="20" fill="white"/>
            </clipPath>
        </defs>
    </symbol>

    <symbol id ="icon-email" viewBox="0 0 26 26" >
        <path d="M16.8472 14.0801L14.6697 16.265C13.7866 17.1511 12.2329 17.1702 11.3308 16.265L9.15316 14.0801L1.33203 21.9266C1.62316 22.0612 1.94415 22.1416 2.2854 22.1416H23.7151C24.0563 22.1416 24.3772 22.0613 24.6682 21.9266L16.8472 14.0801Z" fill="#BB9B75"/>
        <path d="M23.715 3.85938H2.2853C1.94405 3.85938 1.62306 3.93971 1.33203 4.07433L9.68946 12.4595C9.69002 12.46 9.69068 12.4601 9.69123 12.4607C9.69179 12.4613 9.69189 12.462 9.69189 12.462L12.4094 15.1885C12.698 15.4771 13.3024 15.4771 13.591 15.1885L16.3079 12.4625C16.3079 12.4625 16.3086 12.4613 16.3091 12.4607C16.3091 12.4607 16.3104 12.46 16.3109 12.4595L24.6681 4.07428C24.3771 3.93961 24.0562 3.85938 23.715 3.85938Z" fill="#BB9B75"/>
        <path d="M0.243039 5.14062C0.0924219 5.44521 0 5.78331 0 6.14548V19.8564C0 20.2186 0.0923203 20.5567 0.242988 20.8613L8.07767 13.0012L0.243039 5.14062Z" fill="#BB9B75"/>
        <path d="M25.7565 5.13867L17.9219 12.9994L25.7565 20.8595C25.9071 20.5549 25.9995 20.2168 25.9995 19.8546V6.14363C25.9995 5.78136 25.9071 5.44326 25.7565 5.13867Z" fill="#BB9B75"/>
    </symbol>

    <symbol id ="icon-telegram-blue" viewBox="0 0 26 22" >
        <path d="M10.2019 14.4459L9.77186 20.4952C10.3872 20.4952 10.6537 20.2309 10.9733 19.9135L13.8582 17.1564L19.836 21.5341C20.9324 22.1451 21.7048 21.8234 22.0005 20.5255L25.9244 2.13921L25.9254 2.13812C26.2732 0.517455 25.3394 -0.116295 24.2712 0.281288L1.20703 9.11154C-0.367057 9.72254 -0.343224 10.6 0.939443 10.9976L6.83603 12.8317L20.5326 4.26146C21.1772 3.83462 21.7633 4.07079 21.2812 4.49762L10.2019 14.4459Z" fill="#039BE5"/>
    </symbol>

    <symbol id="icon-more-items"  viewBox="0 0 29 29">
        <path d="M8.67435 12.0225C10.5235 12.0225 12.0225 10.5235 12.0225 8.67435C12.0225 6.8252 10.5235 5.32617 8.67435 5.32617C6.8252 5.32617 5.32617 6.8252 5.32617 8.67435C5.32617 10.5235 6.8252 12.0225 8.67435 12.0225Z" fill="white"/>
        <path d="M8.67435 23.6749C10.5235 23.6749 12.0225 22.1758 12.0225 20.3267C12.0225 18.4775 10.5235 16.9785 8.67435 16.9785C6.8252 16.9785 5.32617 18.4775 5.32617 20.3267C5.32617 22.1758 6.8252 23.6749 8.67435 23.6749Z" fill="white"/>
        <path d="M20.3267 12.0225C22.1758 12.0225 23.6749 10.5235 23.6749 8.67435C23.6749 6.8252 22.1758 5.32617 20.3267 5.32617C18.4775 5.32617 16.9785 6.8252 16.9785 8.67435C16.9785 10.5235 18.4775 12.0225 20.3267 12.0225Z" fill="white"/>
        <path d="M20.3267 23.6749C22.1758 23.6749 23.6749 22.1758 23.6749 20.3267C23.6749 18.4775 22.1758 16.9785 20.3267 16.9785C18.4775 16.9785 16.9785 18.4775 16.9785 20.3267C16.9785 22.1758 18.4775 23.6749 20.3267 23.6749Z" fill="white"/>
    </symbol>

    <symbol id="icon-user" viewBox="0 0 23 23">
        <path d="M19.6318 14.8682C18.3792 13.6157 16.8883 12.6885 15.2617 12.1272C17.0039 10.9273 18.1484 8.91915 18.1484 6.64844C18.1484 2.9825 15.1659 0 11.5 0C7.83406 0 4.85156 2.9825 4.85156 6.64844C4.85156 8.91915 5.99613 10.9273 7.73833 12.1272C6.11171 12.6885 4.62084 13.6157 3.36829 14.8682C1.19622 17.0403 0 19.9282 0 23H1.79688C1.79688 17.6497 6.14967 13.2969 11.5 13.2969C16.8503 13.2969 21.2031 17.6497 21.2031 23H23C23 19.9282 21.8038 17.0403 19.6318 14.8682ZM11.5 11.5C8.82486 11.5 6.64844 9.32362 6.64844 6.64844C6.64844 3.97325 8.82486 1.79688 11.5 1.79688C14.1751 1.79688 16.3516 3.97325 16.3516 6.64844C16.3516 9.32362 14.1751 11.5 11.5 11.5Z"/>
    </symbol>

    <symbol id="icon-favorite" viewBox="0 0 26 24">    
        <path d="M13 23.5535C12.6298 23.5535 12.273 23.4194 11.9949 23.1758C10.9445 22.2574 9.93188 21.3943 9.03845 20.633L9.03389 20.629C6.41449 18.3969 4.15255 16.4691 2.57873 14.5702C0.819441 12.4473 0 10.4345 0 8.23564C0 6.09926 0.732558 4.12831 2.06259 2.68561C3.40849 1.22585 5.25525 0.421875 7.26329 0.421875C8.76411 0.421875 10.1386 0.896362 11.3484 1.83205C11.959 2.30435 12.5124 2.88239 13 3.55663C13.4878 2.88239 14.041 2.30435 14.6518 1.83205C15.8616 0.896362 17.236 0.421875 18.7369 0.421875C20.7447 0.421875 22.5917 1.22585 23.9376 2.68561C25.2676 4.12831 26 6.09926 26 8.23564C26 10.4345 25.1807 12.4473 23.4214 14.57C21.8476 16.4691 19.5859 18.3967 16.9669 20.6286C16.0718 21.3912 15.0576 22.2556 14.0049 23.1762C13.727 23.4194 13.3699 23.5535 13 23.5535ZM7.26329 1.94492C5.6857 1.94492 4.23646 2.57452 3.18215 3.7179C2.11218 4.87852 1.52284 6.48289 1.52284 8.23564C1.52284 10.085 2.21017 11.739 3.75126 13.5984C5.24077 15.3958 7.4563 17.2838 10.0215 19.47L10.0263 19.474C10.9231 20.2383 11.9397 21.1047 12.9978 22.0299C14.0622 21.1029 15.0804 20.2351 15.979 19.4696C18.544 17.2834 20.7594 15.3958 22.2489 13.5984C23.7898 11.739 24.4771 10.085 24.4771 8.23564C24.4771 6.48289 23.8878 4.87852 22.8178 3.7179C21.7637 2.57452 20.3142 1.94492 18.7369 1.94492C17.5812 1.94492 16.5201 2.31229 15.5833 3.03671C14.7484 3.68259 14.1668 4.49905 13.8258 5.07034C13.6504 5.36412 13.3418 5.53947 13 5.53947C12.6582 5.53947 12.3495 5.36412 12.1742 5.07034C11.8334 4.49905 11.2518 3.68259 10.4167 3.03671C9.47981 2.31229 8.41876 1.94492 7.26329 1.94492Z"/>
    </symbol>

    <symbol id="icon-favorite-default" viewBox="0 0 110 110">
       <path  d="M54.9991 15C24.9991 -25 -45.0009 45 54.9991 105C154.999 45 84.9991 -25 54.9991 15Z" />
    </symbol>

    <symbol id = "icon-comparison" viewBox="0 0 20 18">
        <path d="M17.6471 16.0598H19.4118C19.7366 16.0598 20 16.3231 20 16.648C20 16.9729 19.7366 17.2362 19.4118 17.2362H0.588242C0.263359 17.2362 0 16.9729 0 16.648C0 16.3231 0.263359 16.0598 0.588242 16.0598H2.35293V6.05977C2.35293 5.73488 2.61629 5.47152 2.94117 5.47152H8.23527C8.56016 5.47152 8.82352 5.73488 8.82352 6.05977V16.0598H11.1764V1.35387C11.1764 1.02898 11.4398 0.765625 11.7647 0.765625H17.0588C17.3837 0.765625 17.647 1.02898 17.647 1.35387V16.0598H17.6471ZM3.52941 6.64801V16.0598H7.64707V6.64801H3.52941ZM12.3529 1.94211V16.0598H16.4706V1.94211H12.3529Z"/>
    </symbol>

    <symbol id = "icon-comparison-default" viewBox="0 0 26 25">
        <path d="M4 16V8h6v16H4zM15 22V2h6v22h-6z" stroke-width="1.5"/>
        <line x1="1" y1="24" x2="25" y2="24" stroke-width="2"/>   
    </symbol>

    <symbol id = "icon-cart" viewBox="0 0 26 26" >
        <path d="M8.37692 16.8088H8.37811C8.37911 16.8088 8.3801 16.8086 8.38109 16.8086H22.1914C22.5314 16.8086 22.8303 16.5831 22.9238 16.2561L25.9706 5.59209C26.0363 5.36218 25.9903 5.11502 25.8465 4.92419C25.7025 4.73337 25.4773 4.62109 25.2383 4.62109H6.62021L6.0757 2.1707C5.99814 1.82217 5.68909 1.57422 5.33203 1.57422H0.761719C0.340988 1.57422 0 1.91521 0 2.33594C0 2.75667 0.340988 3.09766 0.761719 3.09766H4.72107C4.81747 3.53188 7.32678 14.824 7.47119 15.4736C6.66167 15.8255 6.09375 16.6326 6.09375 17.5703C6.09375 18.8303 7.1189 19.8555 8.37891 19.8555H22.1914C22.6121 19.8555 22.9531 19.5145 22.9531 19.0938C22.9531 18.673 22.6121 18.332 22.1914 18.332H8.37891C7.95897 18.332 7.61719 17.9902 7.61719 17.5703C7.61719 17.151 7.95778 16.8098 8.37692 16.8088ZM24.2284 6.14453L21.6167 15.2852H8.98987L6.95862 6.14453H24.2284Z"/>
        <path d="M7.61719 22.1406C7.61719 23.4006 8.64233 24.4258 9.90234 24.4258C11.1624 24.4258 12.1875 23.4006 12.1875 22.1406C12.1875 20.8806 11.1624 19.8555 9.90234 19.8555C8.64233 19.8555 7.61719 20.8806 7.61719 22.1406ZM9.90234 21.3789C10.3223 21.3789 10.6641 21.7207 10.6641 22.1406C10.6641 22.5606 10.3223 22.9023 9.90234 22.9023C9.48241 22.9023 9.14062 22.5606 9.14062 22.1406C9.14062 21.7207 9.48241 21.3789 9.90234 21.3789Z" />
        <path d="M18.3828 22.1406C18.3828 23.4006 19.408 24.4258 20.668 24.4258C21.928 24.4258 22.9531 23.4006 22.9531 22.1406C22.9531 20.8806 21.928 19.8555 20.668 19.8555C19.408 19.8555 18.3828 20.8806 18.3828 22.1406ZM20.668 21.3789C21.0879 21.3789 21.4297 21.7207 21.4297 22.1406C21.4297 22.5606 21.0879 22.9023 20.668 22.9023C20.248 22.9023 19.9062 22.5606 19.9062 22.1406C19.9062 21.7207 20.248 21.3789 20.668 21.3789Z" />
    </symbol>

    <symbol id = "icon-left-arrow"  viewBox="0 0 11 19">
        <path d="M-5.38418e-07 9.50003C-5.53302e-07 9.84055 0.132051 10.181 0.3956 10.4406L8.69309 18.6102C9.22091 19.1299 10.0767 19.1299 10.6043 18.6102C11.1319 18.0907 11.1319 17.2483 10.6043 16.7286L3.26222 9.50003L10.604 2.27143C11.1316 1.75174 11.1316 0.909399 10.604 0.389959C10.0764 -0.129986 9.22065 -0.129986 8.69283 0.389959L0.395343 8.55942C0.131752 8.81916 -5.23538e-07 9.15964 -5.38418e-07 9.50003Z"/>
    </symbol>

    <symbol id = "icon-right-arrow"  viewBox="0 0 11 19">
        <path d="M11 9.49997C11 9.15945 10.8679 8.81897 10.6044 8.55936L2.30691 0.389769C1.77909 -0.129923 0.923317 -0.129923 0.395707 0.389769C-0.131902 0.909252 -0.131902 1.75168 0.395707 2.27141L7.73778 9.49997L0.395964 16.7286C-0.131645 17.2483 -0.131645 18.0906 0.395964 18.61C0.923574 19.13 1.77935 19.13 2.30717 18.61L10.6047 10.4406C10.8682 10.1808 11 9.84036 11 9.49997Z"/>
    </symbol>
    
    <symbol id= "icon-calendar" viewBox="0 0 12 12"> 
        <path d="M9.68318 0.925363H9.23558V0.472448C9.23558 0.213672 9.02582 0.00390625 8.76704 0.00390625C8.50826 0.00390625 8.2985 0.213672 8.2985 0.472448V0.925363H3.70148V0.472448C3.70148 0.213672 3.49171 0.00390625 3.23293 0.00390625C2.97416 0.00390625 2.76439 0.213672 2.76439 0.472448V0.925363H2.31682C1.03932 0.925363 0 1.96468 0 3.24216V9.68174C0 10.9592 1.03932 11.9986 2.31682 11.9986H9.6832C10.9607 11.9986 12 10.9592 12 9.68174V3.24216C12 1.96468 10.9607 0.925363 9.68318 0.925363ZM2.31682 1.86245H2.76439V2.7761C2.76439 3.03488 2.97416 3.24464 3.23293 3.24464C3.49171 3.24464 3.70148 3.03488 3.70148 2.7761V1.86245H8.29852V2.7761C8.29852 3.03488 8.50829 3.24464 8.76706 3.24464C9.02584 3.24464 9.23561 3.03488 9.23561 2.7761V1.86245H9.6832C10.444 1.86245 11.0629 2.48139 11.0629 3.24216V3.68976H0.937083V3.24216C0.937083 2.48139 1.55603 1.86245 2.31682 1.86245ZM9.68318 11.0615H2.31682C1.55603 11.0615 0.937083 10.4425 0.937083 9.68174V4.62684H11.0629V9.68174C11.0629 10.4425 10.444 11.0615 9.68318 11.0615ZM4.16222 6.46978C4.16222 6.72855 3.95245 6.93832 3.69368 6.93832H2.77222C2.51344 6.93832 2.30368 6.72855 2.30368 6.46978C2.30368 6.211 2.51344 6.00124 2.77222 6.00124H3.69368C3.95243 6.00124 4.16222 6.211 4.16222 6.46978ZM9.69635 6.46978C9.69635 6.72855 9.48658 6.93832 9.2278 6.93832H8.30635C8.04757 6.93832 7.83781 6.72855 7.83781 6.46978C7.83781 6.211 8.04757 6.00124 8.30635 6.00124H9.2278C9.48656 6.00124 9.69635 6.211 9.69635 6.46978ZM6.92661 6.46978C6.92661 6.72855 6.71684 6.93832 6.45807 6.93832H5.53661C5.27784 6.93832 5.06807 6.72855 5.06807 6.46978C5.06807 6.211 5.27784 6.00124 5.53661 6.00124H6.45807C6.71682 6.00124 6.92661 6.211 6.92661 6.46978ZM4.16222 9.23417C4.16222 9.49295 3.95245 9.70271 3.69368 9.70271H2.77222C2.51344 9.70271 2.30368 9.49295 2.30368 9.23417C2.30368 8.97539 2.51344 8.76563 2.77222 8.76563H3.69368C3.95243 8.76563 4.16222 8.97539 4.16222 9.23417ZM9.69635 9.23417C9.69635 9.49295 9.48658 9.70271 9.2278 9.70271H8.30635C8.04757 9.70271 7.83781 9.49295 7.83781 9.23417C7.83781 8.97539 8.04757 8.76563 8.30635 8.76563H9.2278C9.48656 8.76563 9.69635 8.97539 9.69635 9.23417ZM6.92661 9.23417C6.92661 9.49295 6.71684 9.70271 6.45807 9.70271H5.53661C5.27784 9.70271 5.06807 9.49295 5.06807 9.23417C5.06807 8.97539 5.27784 8.76563 5.53661 8.76563H6.45807C6.71682 8.76563 6.92661 8.97539 6.92661 9.23417Z" fill="#474747"/>
    </symbol>
    
    <symbol id="icon-close" viewBox="0 0 11 11">
        <g clip-path="url(#clip0_154_7494)">
            <path d="M0.569544 -2.76566e-05C0.424647 -2.76566e-05 0.27975 0.0550861 0.169661 0.166003C-0.0513453 0.38701 -0.0513453 0.745316 0.169661 0.966322L10.0376 10.8342C10.2586 11.0553 10.6169 11.0553 10.8379 10.8342C11.0589 10.6132 11.0589 10.2549 10.8379 10.0338L0.970118 0.166003C0.8592 0.0557766 0.714303 -2.76566e-05 0.569544 -2.76566e-05Z" fill="#434343"/>
            <path d="M10.4382 -2.76566e-05C10.2933 -2.76566e-05 10.1485 0.0550861 10.0383 0.166003L0.169661 10.0338C-0.0513453 10.2549 -0.0513453 10.6132 0.169661 10.8342C0.390667 11.0553 0.748973 11.0553 0.970118 10.8342L10.8379 0.966322C11.0589 0.745316 11.0589 0.38701 10.8379 0.166003C10.727 0.0557766 10.5822 -2.76566e-05 10.4382 -2.76566e-05Z" fill="#434343"/>
        </g>
        <defs>
            <clipPath id="clip0_154_7494">
                <rect width="11" height="11" fill="white" transform="matrix(1 0 0 -1 0 11)"/>
            </clipPath>
        </defs>

    </symbol>

 <symbol id="icon-plus"  viewBox="0 0 16 16">
    <g clip-path="url(#clip0_154_7477)">
        <path d="M15.2 7.2H8.80005V0.799951C8.80005 0.358447 8.4416 0 7.99995 0C7.55845 0 7.2 0.358447 7.2 0.799951V7.2H0.799951C0.358447 7.2 0 7.55845 0 7.99995C0 8.4416 0.358447 8.80005 0.799951 8.80005H7.2V15.2C7.2 15.6416 7.55845 16 7.99995 16C8.4416 16 8.80005 15.6416 8.80005 15.2V8.80005H15.2C15.6416 8.80005 16 8.4416 16 7.99995C16 7.55845 15.6416 7.2 15.2 7.2Z" fill="#323232"/>
    </g>
    <defs>
        <clipPath id="clip0_154_7477">
            <rect width="16" height="16" fill="white"/>
        </clipPath>
    </defs>
 </symbol>
 
 <symbol id="icon-minus" viewBox="0 0 16 17">
    <path d="M0.959961 9.52082H15.0399C15.5702 9.52082 16 9.06415 16 8.50058C16 7.93714 15.5703 7.48047 15.0399 7.48047H0.959961C0.429802 7.48061 0 7.93728 0 8.50071C0 9.06415 0.429802 9.52082 0.959961 9.52082Z" fill="#323232"/>
 </symbol>

 <symbol id="icon-download" viewBox="0 0 256 256">
    <g xmlns="http://www.w3.org/2000/svg" style="stroke: none; stroke-width: 0; stroke-dasharray: none; stroke-linecap: butt; stroke-linejoin: miter; stroke-miterlimit: 10; fill: none; fill-rule: nonzero; opacity: 1;" transform="translate(1.4065934065934016 1.4065934065934016) scale(2.81 2.81)">
	<path d="M 81.521 31.109 c -0.86 -1.73 -2.959 -2.438 -4.692 -1.575 c -1.73 0.86 -2.436 2.961 -1.575 4.692 c 2.329 4.685 3.51 9.734 3.51 15.01 C 78.764 67.854 63.617 83 45 83 S 11.236 67.854 11.236 49.236 c 0 -16.222 11.501 -29.805 26.776 -33.033 l -3.129 4.739 c -1.065 1.613 -0.62 3.784 0.992 4.85 c 0.594 0.392 1.264 0.579 1.926 0.579 c 1.136 0 2.251 -0.553 2.924 -1.571 l 7.176 -10.87 c 0.001 -0.001 0.001 -0.002 0.002 -0.003 l 0.018 -0.027 c 0.063 -0.096 0.106 -0.199 0.159 -0.299 c 0.049 -0.093 0.108 -0.181 0.149 -0.279 c 0.087 -0.207 0.152 -0.419 0.197 -0.634 c 0.009 -0.041 0.008 -0.085 0.015 -0.126 c 0.031 -0.182 0.053 -0.364 0.055 -0.547 c 0 -0.014 0.004 -0.028 0.004 -0.042 c 0 -0.066 -0.016 -0.128 -0.019 -0.193 c -0.008 -0.145 -0.018 -0.288 -0.043 -0.431 c -0.018 -0.097 -0.045 -0.189 -0.071 -0.283 c -0.032 -0.118 -0.065 -0.236 -0.109 -0.35 c -0.037 -0.095 -0.081 -0.185 -0.125 -0.276 c -0.052 -0.107 -0.107 -0.211 -0.17 -0.313 c -0.054 -0.087 -0.114 -0.168 -0.175 -0.25 c -0.07 -0.093 -0.143 -0.183 -0.223 -0.27 c -0.074 -0.08 -0.153 -0.155 -0.234 -0.228 c -0.047 -0.042 -0.085 -0.092 -0.135 -0.132 L 36.679 0.775 c -1.503 -1.213 -3.708 -0.977 -4.921 0.53 c -1.213 1.505 -0.976 3.709 0.53 4.921 l 3.972 3.2 C 17.97 13.438 4.236 29.759 4.236 49.236 C 4.236 71.714 22.522 90 45 90 s 40.764 -18.286 40.764 -40.764 C 85.764 42.87 84.337 36.772 81.521 31.109 z" style="stroke: none; stroke-width: 1; stroke-dasharray: none; stroke-linecap: butt; stroke-linejoin: miter; stroke-miterlimit: 10; fill: rgb(0,0,0); fill-rule: nonzero; opacity: 1;" transform=" matrix(1 0 0 1 0 0) " stroke-linecap="round"/>
    </g>
 </symbol>
 <symbol id="icon-eye-off" viewBox="0 0 135 90">
    <path d="M105.223 5.49128L99.6226 11.2246L90.6893 8.02461C72.4226 1.22461 53.0893 2.69128 34.5559 12.0246C24.9559 16.8246 5.75592 34.0246 1.75592 41.358C-0.64408 45.8913 -0.64408 46.0246 2.28925 50.6913C5.62259 56.158 25.8893 75.6246 28.1559 75.6246C28.9559 75.6246 27.2226 78.0246 24.4226 80.958C19.8893 85.6246 19.4893 86.558 21.2226 88.2913C22.8226 90.0246 23.8893 89.6246 29.3559 84.8246C35.4893 79.6246 35.7559 79.4913 39.6226 81.6246C45.3559 84.558 59.3559 87.6246 67.0893 87.6246C76.4226 87.6246 88.9559 84.4246 99.3559 79.358C109.223 74.4246 128.289 57.6246 132.423 49.8913C134.823 45.358 134.823 45.2246 132.023 40.6913C129.089 36.0246 113.623 20.5579 107.756 16.5579L104.423 14.1579L109.489 9.49128C114.823 4.55795 115.356 3.35795 112.689 1.22461C111.356 0.0246129 109.623 1.09128 105.223 5.49128ZM84.8226 12.5579C89.3559 13.6246 93.0893 14.9579 93.0893 15.4913C93.0893 16.0246 91.0893 18.4246 88.6893 20.6913L84.1559 25.0913L78.2893 22.4246C56.4226 12.4246 34.2893 33.358 43.2226 55.758L45.4893 61.2246L40.0226 66.6913C34.6893 71.8913 34.4226 72.0246 30.8226 70.2913C26.0226 67.758 6.42259 48.2913 6.42259 45.8913C6.42259 42.8246 20.9559 27.758 29.4893 22.0246C47.3559 9.89128 63.3559 7.09128 84.8226 12.5579ZM107.089 23.6246C113.356 27.8913 127.756 43.2246 127.756 45.4913C127.756 48.2913 114.023 62.4246 105.623 68.4246C100.823 71.8913 92.6893 76.0246 87.4893 77.8913C79.0893 80.8246 76.1559 81.2246 64.4226 80.6913C54.9559 80.2913 49.3559 79.358 45.3559 77.4913L39.6226 74.958L69.3559 47.2246C85.6226 32.0246 99.4893 19.6246 100.156 19.6246C100.689 19.6246 103.889 21.358 107.089 23.6246ZM73.8893 26.958C76.5559 28.0246 78.4226 29.4913 78.1559 30.0246C77.3559 32.158 52.0226 55.6246 50.6893 55.6246C48.2893 55.6246 46.2893 46.0246 47.7559 41.0913C49.7559 34.0246 52.8226 30.2913 58.8226 27.4913C65.6226 24.4246 67.7559 24.4246 73.8893 26.958Z" fill="black"/>
    <path d="M87.0885 47.3585C85.2219 58.6918 77.7552 65.2252 66.4219 65.4918C61.3552 65.6252 60.4219 66.0252 60.4219 68.2918C60.4219 74.0252 75.8885 72.0252 83.8885 65.3585C91.7552 58.6918 96.4219 42.2918 90.5552 42.2918C88.6885 42.2918 87.7552 43.6252 87.0885 47.3585Z" fill="black"/>
 </symbol>
 <symbol id="icon-eye" viewBox="0 0 135 83">
    <path d="M44.9336 3.35817C33.4669 7.35817 19.2003 17.0915 10.2669 27.0915C0.5336 37.8915 -0.933066 40.6915 1.3336 44.9582C7.60027 56.8248 28.8003 73.8915 43.6003 79.2248C54.4003 83.2248 74.2669 84.0248 84.8003 80.9582C98.5336 77.0915 110.534 69.7582 121.334 58.9582C133.734 46.4248 135.867 42.9582 133.334 38.2915C130.134 32.2915 118.534 20.2915 110 14.1582C95.8669 4.15817 87.2003 1.22483 69.3336 0.6915C55.8669 0.2915 52.9336 0.558166 44.9336 3.35817ZM82.5336 7.62483C92.5336 10.2915 102.134 15.2248 110.4 22.0248C117.6 28.0248 128 39.6248 128 41.7582C128 44.0248 110.4 61.6248 103.6 66.0248C78.8003 82.2915 50.2669 80.9582 25.7336 62.4248C18.2669 56.8248 6.66693 44.1582 6.66693 41.6248C6.66693 41.0915 9.06693 37.6248 12.0003 33.8915C21.6003 21.8915 39.3336 10.2915 53.2003 7.0915C60.8003 5.22483 74.6669 5.4915 82.5336 7.62483Z" fill="black"/>
 </symbol>

 <symbol id="icon-eye-pupil" viewBox="0 0 135 52">
    <path d="M18.4668 1.95898C10.8668 4.62565 6.86676 8.09232 3.40009 14.6256C-2.86657 26.4923 1.00009 41.0257 12.0668 48.0923C17.1334 51.2923 19.6668 51.959 26.3334 51.959C59.1334 51.959 61.5334 5.69232 29.0001 0.758982C25.8001 0.358982 21.6668 0.758982 18.4668 1.95898ZM34.0668 8.09232C50.3334 16.4923 50.3334 37.8257 34.0668 44.759C18.6001 51.2923 1.8001 36.4923 6.86676 20.8923C8.33343 16.4923 15.1334 8.89232 19.0001 7.55898C22.6001 6.22565 31.1334 6.62565 34.0668 8.09232Z" fill="black"/>
 </symbol>
  <symbol id="icon-google" viewBox="0 0 25 25"> 
    <path d="M21.3607 10.5485V7.38397H19.251V10.5485H16.0864V12.6582H19.251V15.8228H21.3607V12.6582H24.5252V10.5485H21.3607ZM13.2383 14.135L12.0779 13.2911C11.656 12.9747 11.2341 12.5527 11.2341 11.8143C11.2341 11.0759 11.7615 10.443 12.2889 10.1266C13.6602 9.07173 15.0316 7.91139 15.0316 5.59072C15.0316 3.37553 13.6602 2.1097 12.9219 1.47679H14.7151L15.9809 0H9.44084C4.7995 0 2.47883 2.95359 2.47883 6.11814C2.47883 8.5443 4.37756 11.1814 7.75308 11.1814H8.59696C8.49148 11.4979 8.17502 12.0253 8.17502 12.5527C8.17502 13.6076 8.59696 14.0295 9.12439 14.6624C7.6476 14.7679 4.90498 15.0844 2.90077 16.3502C1.00203 17.5105 0.474609 19.0928 0.474609 20.2532C0.474609 22.6793 2.6898 25 7.43663 25C13.1328 25 15.8755 21.8354 15.8755 18.7764C15.8754 16.5612 14.7151 15.4008 13.2383 14.135ZM5.22144 4.53587C5.22144 2.21519 6.59274 1.16034 8.06954 1.16034C10.8121 1.16034 12.2889 4.85232 12.2889 6.96203C12.2889 9.70464 10.0738 10.2321 9.22987 10.2321C6.59274 10.2321 5.22144 6.96203 5.22144 4.53587ZM9.01886 23.5232C5.53785 23.5232 3.32267 21.9409 3.32267 19.6202C3.32267 17.2995 5.43237 16.5611 6.06528 16.2447C7.43658 15.8227 9.22983 15.7173 9.54629 15.7173C9.86274 15.7173 10.0737 15.7173 10.2847 15.7173C12.8163 17.5105 13.8712 18.2489 13.8712 19.9367C13.8712 21.9409 11.867 23.5232 9.01886 23.5232Z" fill="white"/>
 </symbol>
 <symbol id="icon-facebook" viewBox="0 0 14 24"> 
    <path d="M4.31313 13.4561C4.22913 13.4561 2.38112 13.4561 1.54113 13.4561C1.09313 13.4561 0.953125 13.2881 0.953125 12.8681C0.953125 11.7481 0.953125 10.6001 0.953125 9.48013C0.953125 9.03213 1.12113 8.89213 1.54113 8.89213H4.31313C4.31313 8.80813 4.31313 7.18413 4.31313 6.42813C4.31313 5.30813 4.50912 4.24413 5.06912 3.26412C5.65712 2.25612 6.49712 1.58412 7.56112 1.19212C8.26112 0.940125 8.96112 0.828125 9.71712 0.828125H12.4611C12.8531 0.828125 13.0211 0.996125 13.0211 1.38813V4.58013C13.0211 4.97213 12.8531 5.14013 12.4611 5.14013C11.7051 5.14013 10.9491 5.14013 10.1931 5.16813C9.43712 5.16813 9.04512 5.53213 9.04512 6.31613C9.01712 7.15613 9.04512 7.96813 9.04512 8.83613H12.2931C12.7411 8.83613 12.9091 9.00413 12.9091 9.45213V12.8401C12.9091 13.2881 12.7691 13.4281 12.2931 13.4281C11.2851 13.4281 9.12912 13.4281 9.04512 13.4281V22.5561C9.04512 23.0321 8.90512 23.2001 8.40112 23.2001C7.22512 23.2001 6.07712 23.2001 4.90112 23.2001C4.48112 23.2001 4.31313 23.0321 4.31313 22.6121C4.31313 19.6721 4.31313 13.5401 4.31313 13.4561Z" fill="white"/>
 </symbol>

 <symbol id = "icon-telegram-white" viewBox="0 0 26 22" >
    <path d="M10.2019 14.4459L9.77186 20.4952C10.3872 20.4952 10.6537 20.2309 10.9733 19.9135L13.8582 17.1564L19.836 21.5341C20.9324 22.1451 21.7048 21.8234 22.0005 20.5255L25.9244 2.13921L25.9254 2.13812C26.2732 0.517455 25.3394 -0.116295 24.2712 0.281288L1.20703 9.11154C-0.367057 9.72254 -0.343224 10.6 0.939443 10.9976L6.83603 12.8317L20.5326 4.26146C21.1772 3.83462 21.7633 4.07079 21.2812 4.49762L10.2019 14.4459Z" fill="#FFFFFF"/>
 </symbol>

 <symbol id="icon-twitter" viewBox="0 0 24 24">
    <g clip-path="url(#clip0_154_5055)">
    <path d="M7.50093 21.755C16.5581 21.755 21.5109 14.2515 21.5109 7.74501C21.5109 7.53187 21.5065 7.31965 21.497 7.10853C22.4583 6.41346 23.294 5.54609 23.9532 4.55878C23.071 4.95099 22.1214 5.21485 21.1255 5.33405C22.1421 4.72431 22.9227 3.76007 23.2907 2.61054C22.3393 3.1745 21.2857 3.58429 20.164 3.80567C19.2655 2.84857 17.9861 2.25 16.5696 2.25C13.8505 2.25 11.6453 4.45514 11.6453 7.17335C11.6453 7.55989 11.6886 7.93562 11.773 8.29615C7.68056 8.09016 4.05158 6.13093 1.62323 3.15143C1.20044 3.87909 0.956545 4.72449 0.956545 5.62647C0.956545 7.33467 1.82593 8.84291 3.14777 9.72511C2.33991 9.70021 1.58112 9.47847 0.917727 9.10933C0.916994 9.13002 0.916994 9.15016 0.916994 9.17213C0.916994 11.5569 2.6142 13.548 4.8675 13.9992C4.45368 14.1118 4.01826 14.1724 3.5691 14.1724C3.25233 14.1724 2.94361 14.1413 2.6435 14.0836C3.27045 16.0401 5.08833 17.4637 7.24348 17.5036C5.55818 18.8246 3.43507 19.6114 1.12775 19.6114C0.730775 19.6114 0.338563 19.5887 -0.046875 19.5432C2.13227 20.94 4.7201 21.7552 7.50111 21.7552" fill="white"/>
    </g>
    <defs>
    <clipPath id="clip0_154_5055">
    <rect width="24" height="24" fill="white"/>
    </clipPath>
    </defs>
 </symbol>

 <symbol id="icon-pinterest" viewBox="0 0 23 23">
    <g clip-path="url(#clip0_154_5059)">
    <path d="M9.90795 15.2125C9.3042 18.3786 8.56658 21.4144 6.38158 23.0001C5.7073 18.2141 7.37211 14.6199 8.14476 10.8043C6.82675 8.58513 8.30334 4.1199 11.0836 5.22048C14.5044 6.57353 8.1214 13.4695 12.4065 14.3306C16.8807 15.2295 18.7068 6.56769 15.9329 3.75109C11.924 -0.316586 4.26396 3.6581 5.20597 9.48177C5.43507 10.9053 6.90627 11.3375 5.794 13.3019C3.22806 12.7332 2.46259 10.7099 2.56097 8.01238C2.71955 3.59656 6.52847 0.505035 10.3491 0.0773791C15.1804 -0.46348 19.7148 1.8509 20.3411 6.39609C21.0463 11.5257 18.1601 17.0812 12.9941 16.6819C11.5934 16.5731 11.0058 15.8791 9.90795 15.2125Z" fill="white"/>
    </g>
    <defs>
    <clipPath id="clip0_154_5059">
    <rect width="23" height="23" fill="white"/>
    </clipPath>
    </defs>
 </symbol>

 <symbol id="icon-linkedin" viewBox="0 0 20 20">
    <g clip-path="url(#clip0_154_5068)">
    <path d="M19.9951 20.0008V20H20.0001V12.665C20.0001 9.07667 19.2276 6.3125 15.0326 6.3125C13.0159 6.3125 11.6626 7.41917 11.1101 8.46833H11.0517V6.6475H7.07422V20H11.2159V13.3883C11.2159 11.6475 11.5459 9.96417 13.7017 9.96417C15.8259 9.96417 15.8576 11.9508 15.8576 13.5V20.0008H19.9951Z" fill="white"/>
    <path d="M0.330078 6.64844H4.47675V20.0009H0.330078V6.64844Z" fill="white"/>
    <path d="M2.40167 0C1.07583 0 0 1.07583 0 2.40167C0 3.7275 1.07583 4.82583 2.40167 4.82583C3.7275 4.82583 4.80333 3.7275 4.80333 2.40167C4.8025 1.07583 3.72667 0 2.40167 0V0Z" fill="white"/>
    </g>
    <defs>
    <clipPath id="clip0_154_5068">
    <rect width="20" height="20" fill="white"/>
    </clipPath>
    </defs>
 </symbol>

 <symbol id="icon-truck" viewBox="0 0 33 19">
    <path  d="M11.894 13.359a2.685 2.685 0 00-2.68 2.692 2.684 2.684 0 002.68 2.688 2.684 2.684 0 002.68-2.688 2.685 2.685 0 00-2.68-2.692zm0 4.036c-.74 0-1.34-.605-1.34-1.344a1.34 1.34 0 112.68 0c0 .739-.6 1.344-1.34 1.344zM32.1 11.37v2.87c0 .716-.578 1.297-1.292 1.297h-1.383a3.554 3.554 0 00-3.51-3.043 3.553 3.553 0 00-3.506 3.043H15.4a3.553 3.553 0 00-3.506-3.043 3.553 3.553 0 00-3.506 3.043H6.657c-.713 0-1.292-.58-1.292-1.297v-2.87H32.1zm-6.182 1.989a2.688 2.688 0 00-2.683 2.692 2.687 2.687 0 002.683 2.688 2.686 2.686 0 002.68-2.688 2.687 2.687 0 00-2.68-2.692zm0 4.036c-.74 0-1.34-.605-1.34-1.344a1.34 1.34 0 011.34-1.344 1.343 1.343 0 010 2.688zm5.673-8.916L26.513 3.44a1.723 1.723 0 00-1.21-.501H22.74v-.964c0-.717-.577-1.296-1.292-1.296H6.656c-.71 0-1.292.579-1.292 1.296v.203l-5.243.607 9.291 1.214L0 4.937l9.379 1.338L0 7.09l5.365 1.015v2.547h26.734v-.946a1.74 1.74 0 00-.508-1.228zm-2.214.169h-4.915a.202.202 0 01-.202-.203V4.637c0-.112.09-.203.202-.203h.935c.052 0 .104.022.142.056l3.976 3.808a.203.203 0 01-.138.35z" fill="#B6B6B6"/>
 </symbol>
 <symbol id="icon-map" viewBox="0 0 11 14">
    <path d="M5.053.073C2.267.073 0 2.332 0 5.108c0 3.445 4.522 8.503 4.715 8.717.18.2.496.2.677 0 .192-.214 4.715-5.272 4.715-8.717 0-2.776-2.267-5.035-5.054-5.035zm0 7.568a2.54 2.54 0 01-2.542-2.533 2.54 2.54 0 012.542-2.533 2.54 2.54 0 012.543 2.533A2.54 2.54 0 015.053 7.64z" fill="#B6B6B6"/>
 </symbol>
  <symbol id="icon-car" viewBox="0 0 18 16">
    <path d="M18 8.693c0-.355-.08-.695-.224-1.005a3.282 3.282 0 00-.054-.238L16.16 3.562l-.01-.035C15.6 1.893 14.822.38 12.848.38H5.302C3.28.38 2.565 1.93 2.006 3.518L.371 7.416C.134 7.796 0 8.23 0 8.693v1.21c0 .187.022.37.064.546A.954.954 0 000 10.79v3.598c0 .528.426.956.952.956h1.976a.954.954 0 00.952-.956v-1.8h10.353v1.8c0 .528.426.956.952.956h1.863a.954.954 0 00.952-.956V10.79a.957.957 0 00-.064-.342c.042-.177.064-.36.064-.547v-1.21zM3.167 3.909c.622-1.763 1.123-2.3 2.135-2.3h7.546c1.006 0 1.565.6 2.134 2.292l1.14 2.32a3.482 3.482 0 00-1.212-.215H3.09c-.388 0-.758.062-1.1.176l1.177-2.273zm.98 6.453H2.062a.681.681 0 010-1.365h2.085a.681.681 0 010 1.365zm7.365-.137h-4.85a.431.431 0 010-.864h4.85a.431.431 0 010 .864zm4.373.137H13.8a.681.681 0 010-1.365h2.085a.681.681 0 010 1.365z" fill="#B6B6B6"/>
 </symbol>

 <symbol id="icon-np" viewBox="0 0 28 26">
 <path fill-rule="evenodd" clip-rule="evenodd" d="M21.907 7.697c.08-.025.184.025.289.163l4.724 4.62c.276.275.276.693 0 .897l-4.724 4.69c-.105.139-.21.172-.289.13-.08-.041-.13-.163-.13-.338V7.998c0-.171.05-.276.13-.3zM13.827 0h.335l.321.134 4.863 4.828c.21.276.138.484-.209.484h-2.015a.619.619 0 00-.623.623v3.583c0 .347-.28.623-.698.623h-3.542a.622.622 0 01-.627-.623V6.07a.62.62 0 00-.627-.623H8.852c-.347 0-.419-.208-.21-.484L13.51.134 13.827 0zM6.209 7.593c.088.042.142.163.142.338v10.066c0 .175-.054.28-.142.313-.084.034-.205 0-.347-.104l-4.796-4.828c-.276-.205-.276-.623 0-.898l4.796-4.758c.142-.137.263-.17.347-.129zm6.052 7.923h3.541c.418 0 .698.276.698.622v3.793c0 .413.276.689.623.689h1.878c.347 0 .485.205.209.413l-4.725 4.758a.7.7 0 01-.489.208.69.69 0 01-.485-.208l-4.724-4.758c-.28-.208-.143-.413.204-.413h2.016c.35 0 .627-.276.627-.69v-3.792c0-.346.28-.622.627-.622z" fill="#ED1C24"/>
 </symbol>
 
  <symbol id="icon-up" viewBox="0 0 15 22">
  <path d="M14.3471 12.6829C14.3466 12.6828 7.11806 11.0439 7.11806 11.0439C4.9635 10.5554 3.61193 8.40939 4.09936 6.25062C4.58708 4.09184 6.72904 2.738 8.8836 3.22635C11.0383 3.71489 12.3897 5.86086 11.9023 8.0195C11.658 9.10029 10.9991 9.97854 10.1315 10.5257C10.1313 10.5257 10.1292 10.5275 10.1284 10.5279C10.1029 10.5462 10.0864 10.5761 10.0864 10.6097C10.0864 10.6568 10.1188 10.6964 10.1627 10.7069C10.1628 10.7071 13.3783 11.4356 13.3789 11.4356C13.4554 11.453 13.5349 11.4234 13.5819 11.3612C13.5821 11.3606 13.582 11.361 13.582 11.361C14.4679 10.1866 15 8.7212 15 7.13623C15 3.40361 12.0893 0.353212 8.41792 0.136555C8.3852 0.134743 8.18624 0.126955 8.11902 0.125996C6.49349 0.100428 4.84535 0.567413 3.41213 1.57304C-0.207267 4.11211 -1.08664 9.10985 1.44737 12.736L7.8786 21.9382C7.90607 21.9757 7.95029 22 7.99991 22C8.04995 22 8.09431 21.9753 8.12164 21.9375C8.12164 21.9375 14.437 12.9142 14.4375 12.9133C14.4536 12.8894 14.4632 12.8604 14.4632 12.8293C14.4632 12.7579 14.4137 12.6982 14.3471 12.6829Z" fill="#FABC26"/>
 </symbol>

 <symbol id="icon-comment" viewBox="0 0 16 16" >
   <g clip-path="url(#clip0_906_2223)">
   <path d="M11.8125 9.5625H6.1875C5.877 9.5625 5.625 9.8145 5.625 10.125C5.625 10.4355 5.877 10.6875 6.1875 10.6875H11.8125C12.123 10.6875 12.375 10.4355 12.375 10.125C12.375 9.8145 12.123 9.5625 11.8125 9.5625ZM12.9375 6.1875H5.0625C4.752 6.1875 4.5 6.4395 4.5 6.75C4.5 7.0605 4.752 7.3125 5.0625 7.3125H12.9375C13.248 7.3125 13.5 7.0605 13.5 6.75C13.5 6.4395 13.248 6.1875 12.9375 6.1875ZM9 0C4.02976 0 0 3.52574 0 7.875C0 10.3607 1.31906 12.5736 3.375 14.0169V18L7.31756 15.6077C7.86321 15.6977 8.42456 15.75 9 15.75C13.9708 15.75 18 12.2243 18 7.875C18 3.52574 13.9708 0 9 0ZM9 14.625C8.343 14.625 7.7085 14.5485 7.09874 14.4186L4.45047 16.0104L4.48591 13.4016C2.45588 12.1804 1.125 10.1621 1.125 7.875C1.125 4.14732 4.65074 1.125 9 1.125C13.3493 1.125 16.875 4.14732 16.875 7.875C16.875 11.6027 13.3493 14.625 9 14.625Z" fill="#474747"/>
   </g>
     <clipPath id="clip0_906_2223">
   <rect width="16" height="16" fill="white"/>
   </clipPath>
   </defs>
 </symbol>
 
 <symbol id="icon-share" viewBox="0 0 16 16" >
    <path d="M12.6875 10.375C11.7612 10.375 10.945 10.8307 10.4323 11.5236L5.99969 9.25387C6.07328 9.00303 6.125 8.74306 6.125 8.46875C6.125 8.09669 6.04872 7.74297 5.91694 7.41762L10.5558 4.62612C11.0721 5.232 11.8309 5.625 12.6875 5.625C14.2384 5.625 15.5 4.36341 15.5 2.8125C15.5 1.26159 14.2384 0 12.6875 0C11.1366 0 9.875 1.26159 9.875 2.8125C9.875 3.16991 9.94859 3.50894 10.0707 3.82369L5.41797 6.62337C4.90216 6.0355 4.15428 5.65625 3.3125 5.65625C1.76159 5.65625 0.5 6.91784 0.5 8.46875C0.5 10.0197 1.76159 11.2812 3.3125 11.2812C4.25406 11.2812 5.08409 10.8122 5.59484 10.0998L10.0128 12.3622C9.93147 12.6248 9.875 12.8984 9.875 13.1875C9.875 14.7384 11.1366 16 12.6875 16C14.2384 16 15.5 14.7384 15.5 13.1875C15.5 11.6366 14.2384 10.375 12.6875 10.375Z" fill="#BB9B75"/>
 </symbol>
</svg>